<?xml version="1.0" encoding="iso-8859-1"?>
<!-- Generator: Adobe Illustrator 19.0.0, SVG Export Plug-In . SVG Version: 6.00 Build 0)  -->
<svg version="1.1" id="Layer_1" xmlns="http://www.w3.org/2000/svg" xmlns:xlink="http://www.w3.org/1999/xlink" x="0px" y="0px"
	 viewBox="0 0 511.999 511.999" style="enable-background:new 0 0 511.999 511.999;" xml:space="preserve">
<path style="fill:#FFC61B;" d="M256,438.752c-11.187,0-21.446-5.137-28.146-14.096L7.035,129.451
	c-8.02-10.723-9.279-24.821-3.282-36.794s18.038-19.41,31.429-19.41h57.144c7.642,0,13.836,6.195,13.836,13.836
	s-6.195,13.836-13.836,13.836H35.182c-4.168,0-6.064,2.888-6.686,4.129c-0.621,1.241-1.797,4.49,0.699,7.827l220.818,295.205
	c1.951,2.608,4.588,2.998,5.987,2.998c1.399,0,4.036-0.39,5.988-2.998l220.818-295.205c2.496-3.337,1.32-6.585,0.699-7.827
	c-0.621-1.241-2.518-4.129-6.686-4.129H199.194c-7.642,0-13.836-6.195-13.836-13.836s6.195-13.836,13.836-13.836h277.623
	c13.391,0,25.433,7.437,31.429,19.41s4.738,26.071-3.282,36.794L284.147,424.657C277.446,433.614,267.186,438.752,256,438.752z"/>
<polygon style="fill:#FEE187;" points="120.234,150.991 391.766,150.991 256,332.493 "/>
<path style="fill:#FFC61B;" d="M256,346.329c-4.361,0-8.468-2.056-11.08-5.548L109.154,159.278c-3.137-4.194-3.636-9.8-1.292-14.484
	c2.345-4.682,7.134-7.64,12.371-7.64h271.532c5.238,0,10.027,2.958,12.371,7.64c2.345,4.684,1.844,10.29-1.292,14.484
	L267.077,340.781C264.468,344.273,260.361,346.329,256,346.329z M147.863,164.828L256,309.394l108.137-144.567L147.863,164.828
	L147.863,164.828z"/>
<g>
</g>
<g>
</g>
<g>
</g>
<g>
</g>
<g>
</g>
<g>
</g>
<g>
</g>
<g>
</g>
<g>
</g>
<g>
</g>
<g>
</g>
<g>
</g>
<g>
</g>
<g>
</g>
<g>
</g>
</svg>
